<svg width="40" height="41" viewBox="0 0 40 41" fill="none" xmlns="http://www.w3.org/2000/svg">
<path d="M35 12.9115V10.4115C35 9.5274 34.6488 8.67956 34.0237 8.05444C33.3986 7.42931 32.5507 7.07813 31.6667 7.07812H8.33333C7.44928 7.07813 6.60143 7.42931 5.97631 8.05444C5.35119 8.67956 5 9.5274 5 10.4115V33.7448C5 34.6288 5.35119 35.4767 5.97631 36.1018C6.60143 36.7269 7.44928 37.0781 8.33333 37.0781H14.1667" stroke="#44B51C" stroke-width="3.33333" stroke-linecap="round" stroke-linejoin="round"/>
<path d="M26.667 3.74512V10.4118" stroke="#44B51C" stroke-width="3.33333" stroke-linecap="round" stroke-linejoin="round"/>
<path d="M13.333 3.74512V10.4118" stroke="#44B51C" stroke-width="3.33333" stroke-linecap="round" stroke-linejoin="round"/>
<path d="M5 17.0781H13.3333" stroke="#44B51C" stroke-width="3.33333" stroke-linecap="round" stroke-linejoin="round"/>
<path d="M29.167 29.5785L26.667 27.5784V23.7451" stroke="#44B51C" stroke-width="3.33333" stroke-linecap="round" stroke-linejoin="round"/>
<path d="M26.667 37.0781C32.1898 37.0781 36.667 32.601 36.667 27.0781C36.667 21.5553 32.1898 17.0781 26.667 17.0781C21.1441 17.0781 16.667 21.5553 16.667 27.0781C16.667 32.601 21.1441 37.0781 26.667 37.0781Z" stroke="#44B51C" stroke-width="3.33333" stroke-linecap="round" stroke-linejoin="round"/>
</svg>
