<svg width="40" height="44" viewBox="0 0 40 44" fill="none" xmlns="http://www.w3.org/2000/svg">
<path d="M20 0C13.3046 0 7.8589 5.44575 7.8589 12.1411C7.8589 18.8365 13.3046 24.2822 20 24.2822C26.6954 24.2822 32.1411 18.8365 32.1411 12.1411C32.1411 5.44575 26.6954 0 20 0ZM19.222 2.90705L18.1224 6.19878L22.9924 5.68857L22.5081 4.05821L23.8739 4.43636V6.2451L26.0072 6.38426L25.5899 4.76109L26.7113 4.11163C29.004 6.0288 30.46 8.91129 30.46 12.1411C30.46 13.6978 30.1215 15.1737 29.5144 16.4999L27.0741 16.9129V19.8528C26.6085 20.2799 26.1053 20.6641 25.5705 21.0006L24.523 19.371L22.4822 19.9277L23.0556 22.1491C22.065 22.4497 21.0353 22.602 20 22.6011C17.1036 22.6011 14.4864 21.4304 12.5942 19.5354L14.4583 19.2784L15.7107 16.8201L11.7217 14.8258L14.5511 12.4138L12.093 10.3732L9.58135 11.2103C9.87199 7.89965 11.697 5.03669 14.3438 3.33553L14.8758 7.59015L19.222 2.90705ZM22.8532 8.90447L19.4751 11.0689L22.4269 13.6926L24.5588 13.0695L24.3619 15.6277L28.2648 14.6438L26.7888 11.2986L24.4276 11.3314L26.5266 9.52759L22.8533 8.90447H22.8532ZM19.3441 12.676L17.5402 13.463L18.8192 14.4141L19.3441 12.676ZM15.1076 12.9705L13.8554 14.4545L17.3247 16.8928L15.1076 12.9705ZM20.6888 13.791L19.4098 16.1853L22.4927 18.2842L21.4102 16.7427L22.7549 15.1357L20.6888 13.791ZM1.71083 16.3495C0.887291 16.3367 0.0444183 17.3855 0.0395619 20.0742C0.0322772 24.1978 -0.367259 25.3617 1.54104 30.0253C2.94035 33.4452 3.56786 36.0737 8.04568 38.1978C8.57616 40.0677 8.36443 40.5074 8.00459 42.1053C7.66875 43.5972 11.1261 43.8714 13.658 42.6146C16.3749 41.1327 16.147 37.0524 15.6616 34.2854C15.0971 31.0677 13.3212 30.3989 11.7818 29.0244C10.1834 26.7386 9.81137 22.5978 7.21897 20.9273C6.67757 20.5785 3.91566 20.2244 7.7104 29.7009C2.70724 28.4617 3.61857 22.7176 3.25677 18.4647C3.14899 17.1982 2.43743 16.3606 1.71083 16.3494V16.3495ZM38.2892 16.3495C37.5626 16.3607 36.851 17.1982 36.7432 18.4648C36.3814 22.7176 37.2928 28.4617 32.2896 29.7009C36.0844 20.2243 33.3224 20.5785 32.781 20.9273C30.1886 22.5978 29.8167 26.7386 28.2182 29.0245C26.6789 30.3989 24.9028 31.0677 24.3384 34.2854C23.853 37.0524 23.6251 41.1327 26.3419 42.6146C28.8739 43.8713 32.3312 43.5972 31.9953 42.1053C31.6356 40.5074 31.4238 40.0677 31.9543 38.1978C36.4321 36.0737 37.0596 33.4452 38.459 30.0253C40.3673 25.3617 39.9677 24.1978 39.9604 20.0743C39.9556 17.3855 39.1127 16.3367 38.2892 16.3495Z" fill="white"/>
</svg>
