<svg width="40" height="40" viewBox="0 0 40 40" fill="none" xmlns="http://www.w3.org/2000/svg">
<path d="M3.33301 33.3335C3.33301 34.2176 3.6842 35.0654 4.30932 35.6905C4.93444 36.3156 5.78229 36.6668 6.66634 36.6668H33.333C34.2171 36.6668 35.0649 36.3156 35.69 35.6905C36.3152 35.0654 36.6663 34.2176 36.6663 33.3335V13.3335L24.9997 21.6668V13.3335L13.333 21.6668V6.66683C13.333 5.78277 12.9818 4.93493 12.3567 4.30981C11.7316 3.68469 10.8837 3.3335 9.99967 3.3335H6.66634C5.78229 3.3335 4.93444 3.68469 4.30932 4.30981C3.6842 4.93493 3.33301 5.78277 3.33301 6.66683V33.3335Z" stroke="white" stroke-width="3.33333" stroke-linecap="round" stroke-linejoin="round"/>
<path d="M28.333 30H29.9997" stroke="white" stroke-width="3.33333" stroke-linecap="round" stroke-linejoin="round"/>
<path d="M20 30H21.6667" stroke="white" stroke-width="3.33333" stroke-linecap="round" stroke-linejoin="round"/>
<path d="M11.667 30H13.3337" stroke="white" stroke-width="3.33333" stroke-linecap="round" stroke-linejoin="round"/>
</svg>
