<svg width="22" height="22" viewBox="0 0 22 22" fill="none" xmlns="http://www.w3.org/2000/svg">
<path d="M1.83301 1.8335H3.03032C3.25584 1.8335 3.3686 1.8335 3.45934 1.87497C3.53931 1.91151 3.60707 1.97029 3.65456 2.04428C3.70845 2.12824 3.7244 2.23987 3.75629 2.46312L4.19015 5.50016M4.19015 5.50016L5.15438 12.5873C5.27675 13.4866 5.33793 13.9363 5.55293 14.2748C5.74239 14.5731 6.014 14.8102 6.33508 14.9578C6.69947 15.1252 7.15329 15.1252 8.06094 15.1252H15.9057C16.7697 15.1252 17.2017 15.1252 17.5547 14.9697C17.866 14.8326 18.133 14.6117 18.3259 14.3315C18.5447 14.0138 18.6255 13.5894 18.7872 12.7407L20.0005 6.37071C20.0574 6.07199 20.0859 5.92262 20.0446 5.80587C20.0085 5.70345 19.9371 5.61721 19.8433 5.56251C19.7363 5.50016 19.5842 5.50016 19.2801 5.50016H4.19015ZM9.16634 19.2502C9.16634 19.7564 8.75594 20.1668 8.24967 20.1668C7.74341 20.1668 7.33301 19.7564 7.33301 19.2502C7.33301 18.7439 7.74341 18.3335 8.24967 18.3335C8.75594 18.3335 9.16634 18.7439 9.16634 19.2502ZM16.4997 19.2502C16.4997 19.7564 16.0893 20.1668 15.583 20.1668C15.0767 20.1668 14.6663 19.7564 14.6663 19.2502C14.6663 18.7439 15.0767 18.3335 15.583 18.3335C16.0893 18.3335 16.4997 18.7439 16.4997 19.2502Z" stroke="white" stroke-width="1.83333" stroke-linecap="round" stroke-linejoin="round"/>
</svg>
